<?xml version="1.0" standalone="no"?><!DOCTYPE svg PUBLIC "-//W3C//DTD SVG 1.1//EN" "http://www.w3.org/Graphics/SVG/1.1/DTD/svg11.dtd"><svg t="1771147017534" class="icon" viewBox="0 0 1042 1024" version="1.1" xmlns="http://www.w3.org/2000/svg" p-id="11942" xmlns:xlink="http://www.w3.org/1999/xlink" width="203.515625" height="200"><path d="M972.8 405.942857c-3.657143-10.971429-10.971429-18.285714-21.942857-23.771428L707.657143 292.571429 546.742857 87.771429c-14.628571-18.285714-43.885714-18.285714-58.514286 0L327.314286 292.571429 84.114286 382.171429c-10.971429 3.657143-18.285714 12.8-21.942857 23.771428-3.657143 10.971429-1.828571 21.942857 3.657142 31.085714l144.457143 217.6 9.142857 261.485715c0 10.971429 5.485714 21.942857 14.628572 27.428571 9.142857 7.314286 20.114286 9.142857 31.085714 5.485714L515.657143 877.714286l250.514286 71.314285c3.657143 1.828571 7.314286 1.828571 9.142857 1.828572 7.314286 0 14.628571-1.828571 21.942857-7.314286 9.142857-7.314286 14.628571-16.457143 14.628571-27.428571l9.142857-261.485715 144.457143-217.6c9.142857-9.142857 10.971429-20.114286 7.314286-31.085714z" fill="#0046C8" p-id="11943"></path></svg>