<?xml version="1.0" standalone="no"?><!DOCTYPE svg PUBLIC "-//W3C//DTD SVG 1.1//EN" "http://www.w3.org/Graphics/SVG/1.1/DTD/svg11.dtd"><svg t="1769169009812" class="icon" viewBox="0 0 1024 1024" version="1.1" xmlns="http://www.w3.org/2000/svg" p-id="3778" xmlns:xlink="http://www.w3.org/1999/xlink" width="200" height="200"><path d="M803.032 126.653l-2.695-2.695C724.884 45.81 625.179 0 512 0S299.116 45.81 223.663 121.263l-2.695 5.39C148.211 202.105 102.4 307.2 102.4 423.073s45.81 220.97 118.568 296.422l2.695 2.694L512 1024l288.337-299.116 2.695-2.695C875.789 646.737 921.6 541.642 921.6 423.074c0-115.874-45.81-220.969-118.568-296.421zM512 544.337c-78.147 0-142.821-67.369-142.821-148.21 0-35.032 10.779-64.674 29.642-88.927 26.947-35.032 67.368-59.284 113.179-59.284 78.147 0 142.821 67.368 142.821 148.21S590.147 544.336 512 544.336z" p-id="3779"></path></svg>