<svg fill="none" viewBox="0 0 200 200" height="200" width="200" xmlns="http://www.w3.org/2000/svg">
  <defs>
    <linearGradient gradientUnits="userSpaceOnUse" y2="135" x2="145" y1="55" x1="45" id="g">
      <stop stop-color="#4ECDC4" offset="0%"></stop>
      <stop stop-color="#45B7D1" offset="100%"></stop>
    </linearGradient>
  </defs>
  
  
  <path stroke-linejoin="round" stroke-width="11" stroke="#26334A" fill="url(#g)" d="M48 68 Q48 48 68 48 H132 Q152 48 152 68 V118 Q152 138 132 138 H82 L65 158 L65 138 Q48 138 48 118 Z"></path>
  
  
  <g transform="translate(78 78)">
    
    <circle stroke-width="5.5" stroke="#26334A" fill="#FFFFFF" r="18" cy="22" cx="22"></circle>
    
    
    <circle fill="#26334A" r="9" cy="22" cx="22"></circle>
    
    
    <rect transform="rotate(0 22 22)" fill="#26334A" rx="1" height="6" width="8" y="3" x="18"></rect>
    <rect transform="rotate(0 22 22)" fill="#26334A" rx="1" height="6" width="8" y="35" x="18"></rect>
    <rect transform="rotate(0 22 22)" fill="#26334A" rx="1" height="8" width="6" y="18" x="3"></rect>
    <rect transform="rotate(0 22 22)" fill="#26334A" rx="1" height="8" width="6" y="18" x="35"></rect>
  </g>
  
  
  <circle fill="#FF4E7E" r="14" cy="53" cx="145"></circle>
  <circle fill="#FFFFFF" r="7" cy="53" cx="145"></circle>
</svg>
