<?xml version="1.0" standalone="no"?><!DOCTYPE svg PUBLIC "-//W3C//DTD SVG 1.1//EN" "http://www.w3.org/Graphics/SVG/1.1/DTD/svg11.dtd"><svg t="1769179160306" class="icon" viewBox="0 0 1024 1024" version="1.1" xmlns="http://www.w3.org/2000/svg" p-id="7856" xmlns:xlink="http://www.w3.org/1999/xlink" width="200" height="200"><path d="M970.606642 313.943415a499.337366 499.337366 0 0 0-107.145366-159.768976 494.017561 494.017561 0 0 0-159.444293-107.370146A495.066537 495.066537 0 0 0 510.905569 7.992195h-2.247805c-67.434146 0.349659-132.670439 13.71161-194.110439 40.035903a495.266341 495.266341 0 0 0-157.995707 107.594926 496.490146 496.490146 0 0 0-105.921561 159.219513A501.959805 501.959805 0 0 0 12.4923 509.852098a502.659122 502.659122 0 0 0 53.42283 222.882341v169.484488c0 28.322341 22.952585 51.274927 51.175024 51.274927h169.259707a498.762927 498.762927 0 0 0 222.432781 53.522731h2.347707c66.659902 0 131.221854-12.937366 192.112391-38.237658a494.142439 494.142439 0 0 0 158.869853-106.146342 495.591024 495.591024 0 0 0 107.370147-158.32039 500.11161 500.11161 0 0 0 39.911024-194.56 501.510244 501.510244 0 0 0-38.787122-195.80878z m-682.258732 247.083707a53.497756 53.497756 0 0 1-53.397853-53.522732c0-29.546146 23.95161-53.522732 53.397853-53.522731 29.421268 0 53.397854 23.976585 53.397854 53.522731a53.447805 53.447805 0 0 1-53.397854 53.522732z m222.557659 0a53.522732 53.522732 0 0 1 0-107.045463 53.522732 53.522732 0 0 1 0 107.045463z m222.532683 0a53.522732 53.522732 0 0 1 0-107.045463 53.522732 53.522732 0 0 1 0 107.045463z" p-id="7857"></path></svg>