<?xml version="1.0" standalone="no"?><!DOCTYPE svg PUBLIC "-//W3C//DTD SVG 1.1//EN" "http://www.w3.org/Graphics/SVG/1.1/DTD/svg11.dtd"><svg t="1775374685490" class="icon" viewBox="0 0 1024 1024" version="1.1" xmlns="http://www.w3.org/2000/svg" p-id="5842" id="mx_n_1775374685490" xmlns:xlink="http://www.w3.org/1999/xlink" width="200" height="200"><path d="M512 5.145859m72.407734 72.407735l362.038672 362.038672q72.407734 72.407734 0 144.815468l-362.038672 362.038672q-72.407734 72.407734-144.815468 0l-362.038672-362.038672q-72.407734-72.407734 0-144.815468l362.038672-362.038672q72.407734-72.407734 144.815468 0Z" fill="#FFCF00" p-id="5843"></path><path d="M716.8 395.1104l214.3232 207.36-325.0176 321.4336-283.904-267.776 168.448 60.2624 157.9008 165.12 28.2624-25.7536-143.4112-139.3664c78.848-19.3024 122.88-33.4336 132.1984-42.3936 23.3472-22.528 40.448-115.5072 51.2-278.8864z" fill="#DEB400" p-id="5844"></path><path d="M307.2512 393.728v227.072s3.072 24.7296 9.9328 32.512c6.912 7.7824 19.7632 15.872 19.7632 15.872l142.0288 43.6224s12.6464 4.1984 16.0256 2.4064c3.328-1.792 2.3552-7.168 2.3552-7.168v-256L307.2512 393.728zM716.544 393.728l-60.3136 18.432v98.6624l-39.7312 12.0832V424.448l-90.7776 27.904v234.8544s-0.5632 23.552 2.048 27.7504c2.7136 4.2496 15.872-1.7408 15.872-1.7408l127.6416-39.168s26.9824-7.9872 36.864-19.0976c9.8816-11.1104 8.448-57.9584 8.448-57.9584V393.728h-0.0512zM715.8784 370.0224L522.752 309.9136s-8.3456-2.2016-11.2128-2.2016c-2.8672 0-11.52 2.4064-11.52 2.4064l-59.5456 18.4832 205.824 62.5664 69.5808-21.1456zM307.2 370.0224L511.488 432.128l80.384-24.4224-205.2096-62.4128L307.2 370.0224z" fill="#FFFFFF" p-id="5845"></path></svg>