<svg width="24" height="24" viewBox="0 0 24 24" fill="none" xmlns="http://www.w3.org/2000/svg">
  <path d="M12 15.25C13.7949 15.25 15.25 13.7949 15.25 12C15.25 10.2051 13.7949 8.75 12 8.75C10.2051 8.75 8.75 10.2051 8.75 12C8.75 13.7949 10.2051 15.25 12 15.25Z" stroke="#111827" stroke-width="2.2"/>
  <path d="M19.2 12.0001C19.2 11.5221 19.149 11.0561 19.051 10.6061L21 9.20006L19.2 6.00006L16.961 6.70006C16.255 6.04006 15.422 5.52006 14.5 5.18006L14.1 3.00006H9.90002L9.50002 5.18006C8.57802 5.52006 7.74502 6.04006 7.03902 6.70006L4.80002 6.00006L3.00002 9.20006L4.94902 10.6061C4.85102 11.0561 4.80002 11.5221 4.80002 12.0001C4.80002 12.4781 4.85102 12.9441 4.94902 13.3941L3.00002 14.8001L4.80002 18.0001L7.03902 17.3001C7.74502 17.9601 8.57802 18.4801 9.50002 18.8201L9.90002 21.0001H14.1L14.5 18.8201C15.422 18.4801 16.255 17.9601 16.961 17.3001L19.2 18.0001L21 14.8001L19.051 13.3941C19.149 12.9441 19.2 12.4781 19.2 12.0001Z" stroke="#111827" stroke-width="1.6" stroke-linejoin="round"/>
</svg>
