<?xml version="1.0" standalone="no"?><!DOCTYPE svg PUBLIC "-//W3C//DTD SVG 1.1//EN" "http://www.w3.org/Graphics/SVG/1.1/DTD/svg11.dtd"><svg t="1769242540695" class="icon" viewBox="0 0 1024 1024" version="1.1" xmlns="http://www.w3.org/2000/svg" p-id="6191" xmlns:xlink="http://www.w3.org/1999/xlink" width="200" height="200"><path d="M801.64864 418.816H366.6944V263.95136c0-51.27168 64.93184-108.2112 144.98304-108.2112 80.06144 0 144.98304 56.94464 144.98304 108.2112V310.38464h0.62976c3.9936 26.2656 27.52512 46.4384 55.89504 46.4384 28.57472 0 52.11136-20.1728 55.88992-46.4384h0.62976v-46.4384c0-119.56224-115.3536-216.63744-257.8176-216.63744-142.24896 0-257.60768 97.0752-257.60768 216.63744V418.816h-32.3584c-53.37088 0-96.65536 41.6-96.65536 93.0816v371.92192c0 51.27168 43.28448 92.87168 96.65536 92.87168h580.15232c53.58592 0 96.66048-41.6 96.66048-92.87168V511.8976c-0.22016-51.4816-43.92448-93.0816-97.08544-93.0816z m-241.84832 343.12192v42.24c0 26.69056-21.64736 48.11776-48.5376 48.11776a47.9744 47.9744 0 0 1-48.11776-48.11776v-42.24c-38.03136-17.2288-64.7168-54.21056-64.7168-96.65024 0-59.25888 50.64192-107.1616 112.83456-107.1616s112.62464 47.8976 112.62464 107.1616c0.41984 42.4448-26.05568 79.42144-64.08704 96.65024z" fill="" p-id="6192"></path></svg>