<?xml version="1.0" standalone="no"?><!DOCTYPE svg PUBLIC "-//W3C//DTD SVG 1.1//EN" "http://www.w3.org/Graphics/SVG/1.1/DTD/svg11.dtd"><svg t="1770913690337" class="icon" viewBox="0 0 1024 1024" version="1.1" xmlns="http://www.w3.org/2000/svg" p-id="12799" xmlns:xlink="http://www.w3.org/1999/xlink" width="200" height="200"><path d="M974.848 320l-237.056-221.184c-17.408-18.944-42.496-28.672-68.096-28.672-18.944 0-36.352 11.264-44.032 30.208-23.552 56.832-47.616 96.256-113.664 96.256s-90.112-39.424-113.664-96.256c-7.68-18.944-25.088-30.208-44.032-30.208-25.088 0-50.688 11.264-69.632 28.672l-235.52 219.648c-31.744 31.744-31.744 80.384 0 112.128l90.112 90.112c22.016 22.016 55.296 28.672 81.92 17.408 4.608-1.536 6.144 1.536 6.144 6.144L196.096 860.16c0 62.976 31.744 78.848 78.848 78.848h473.6c47.616 0 78.848-15.872 78.848-78.848l-31.744-315.904c0-4.608 1.536-6.144 6.144-4.608 28.672 9.728 59.904 4.608 83.456-17.408l90.112-90.112c30.72-31.232 30.72-81.92-0.512-112.128z m-44.544 66.56l-90.112 90.112c-6.144 6.144-15.872 6.144-22.016 0-6.144-6.144-15.872-11.264-26.624-11.264-39.424 0-58.368 31.744-58.368 78.848l31.744 315.904c1.536 9.728-7.68 15.872-17.408 15.872H276.48c-9.728 0-17.408-7.68-15.872-17.408l30.208-314.368c4.608-40.96-20.48-78.848-61.44-78.848-9.728 0-17.408 3.072-23.552 9.728-6.144 6.144-15.872 6.144-22.016 0L93.696 385.024c-6.144-6.144-6.144-15.872 0-22.016l222.72-206.848 9.728-9.728c7.68-7.68 18.944-6.144 25.088 3.072 37.888 66.56 77.312 110.592 159.232 110.592s121.344-44.032 159.232-110.592c4.608-9.728 17.408-11.264 25.088-3.072l9.728 9.728 224.256 208.384c8.192 6.144 8.192 15.36 1.536 22.016z" fill="#404042" p-id="12800"></path><path d="M756.736 386.56h-126.464c-17.408 0-31.744-14.336-31.744-31.744 0-17.408 14.336-31.744 31.744-31.744h126.464c17.408 0 31.744 14.336 31.744 31.744 0 17.408-14.336 31.744-31.744 31.744z" fill="#404042" p-id="12801"></path></svg>