<?xml version="1.0" standalone="no"?><!DOCTYPE svg PUBLIC "-//W3C//DTD SVG 1.1//EN" "http://www.w3.org/Graphics/SVG/1.1/DTD/svg11.dtd"><svg t="1770908533612" class="icon" viewBox="0 0 1024 1024" version="1.1" xmlns="http://www.w3.org/2000/svg" p-id="7439" xmlns:xlink="http://www.w3.org/1999/xlink" width="200" height="200"><path d="M630.08 224h-243.168a66.336 66.336 0 0 0-66.336 66.336V732.48c0 36.64 29.696 66.336 66.336 66.336h243.2a66.336 66.336 0 0 0 66.304-66.336V290.336A66.336 66.336 0 0 0 630.112 224z m-143.68 22.112h44.224a11.04 11.04 0 1 1 0 22.08H486.4a11.04 11.04 0 1 1 0-22.08z m22.08 525.696a28.256 28.256 0 1 1 0-56.512 28.256 28.256 0 0 1 0 56.512z m143.744-94.592c0 6.112-4.96 11.072-11.072 11.072h-265.28a11.04 11.04 0 0 1-11.072-11.072V301.376c0-6.08 4.96-11.04 11.072-11.04h265.28c6.112 0 11.072 4.928 11.072 11.04v375.84z" fill="#323333" p-id="7440"></path></svg>