<?xml version="1.0" standalone="no"?><!DOCTYPE svg PUBLIC "-//W3C//DTD SVG 1.1//EN" "http://www.w3.org/Graphics/SVG/1.1/DTD/svg11.dtd"><svg t="1770909061107" class="icon" viewBox="0 0 1024 1024" version="1.1" xmlns="http://www.w3.org/2000/svg" p-id="8427" xmlns:xlink="http://www.w3.org/1999/xlink" width="200" height="200"><path d="M400.018286 317.732571h73.874285v338.285715c0 4.388571 3.657143 8.045714 8.045715 8.045714h59.977143c4.388571 0 8.045714-3.657143 8.045714-8.045714V317.732571H623.908571a8.045714 8.045714 0 0 0 6.290286-12.946285L518.363429 163.108571a8.045714 8.045714 0 0 0-12.653715 0L393.728 304.713143a8.045714 8.045714 0 0 0 6.290286 13.019428z m477.988571 308.297143h-59.977143a8.045714 8.045714 0 0 0-8.045714 7.972572v153.965714H214.016V634.002286a8.045714 8.045714 0 0 0-8.045714-8.045715h-59.977143a8.045714 8.045714 0 0 0-8.045714 8.045715v197.997714c0 17.700571 14.336 32.036571 32.036571 32.036571h684.032a31.963429 31.963429 0 0 0 31.963429-32.036571V634.002286a8.045714 8.045714 0 0 0-8.045715-8.045715z" fill="#000000" fill-opacity=".65" p-id="8428"></path></svg>