<svg xmlns="http://www.w3.org/2000/svg" viewBox="0 0 1280 720">
  <defs>
    <linearGradient id="blueGrad" x1="0%" y1="0%" x2="100%" y2="0%">
      <stop offset="0%" stop-color="#3B82F6" />
      <stop offset="100%" stop-color="#2563EB" />
    </linearGradient>
    <linearGradient id="greenGrad" x1="0%" y1="0%" x2="100%" y2="0%">
      <stop offset="0%" stop-color="#10B981" />
      <stop offset="100%" stop-color="#059669" />
    </linearGradient>
    <linearGradient id="orangeGrad" x1="0%" y1="0%" x2="100%" y2="0%">
      <stop offset="0%" stop-color="#F59E0B" />
      <stop offset="100%" stop-color="#D97706" />
    </linearGradient>
  </defs>
  
  <rect width="1280" height="720" fill="#F9FAFB" />
  
  <path fill="#3B82F6" d="M64,32 H64 A4,4 0 0 1 68,36 V64 A4,4 0 0 1 64,68 H64 A4,4 0 0 1 60,64 V36 A4,4 0 0 1 64,32 Z" />
  <text x="80" y="60" font-family="Microsoft YaHei, PingFang SC, Arial, sans-serif" font-size="32" font-weight="bold" fill="#1F2937">技术选型与系统架构</text>
  <text x="80" y="84" font-family="Microsoft YaHei, PingFang SC, Arial, sans-serif" font-size="14" fill="#6B7280">THREE-TIER ARCHITECTURE WITH SPRING BOOT + UNI-APP + MYSQL</text>

  
  <path fill="#3B82F6" d="M88,110 H112 A8,8 0 0 1 120,118 V262 A8,8 0 0 1 112,270 H88 A8,8 0 0 1 80,262 V118 A8,8 0 0 1 88,110 Z" />
  <text x="100" y="198" text-anchor="middle" font-family="Microsoft YaHei, PingFang SC, Arial, sans-serif" font-size="16" font-weight="bold" fill="#FFFFFF">01</text>
  <path fill="#EFF6FF" stroke="#93C5FD" stroke-width="1.5" stroke-dasharray="6,4" d="M148,110 H1188 A12,12 0 0 1 1200,122 V258 A12,12 0 0 1 1188,270 H148 A12,12 0 0 1 136,258 V122 A12,12 0 0 1 148,110 Z" />
  <text x="668" y="138" text-anchor="middle" font-family="Microsoft YaHei, PingFang SC, Arial, sans-serif" font-size="14" font-weight="bold" fill="#2563EB">小程序端 · 用户界面层</text>
  
  <path fill="#FFFFFF" stroke="#E5E7EB" stroke-width="1" d="M164,155 H448 A8,8 0 0 1 456,163 V242 A8,8 0 0 1 448,250 H164 A8,8 0 0 1 156,242 V163 A8,8 0 0 1 164,155 Z" />
  
  <g transform="translate(176.0, 172.0) scale(1.3333333333333333)" fill="#3B82F6">
    <path d="M16 2a3 3 0 0 1 2.995 2.824l.005 .176v14a3 3 0 0 1 -2.824 2.995l-.176 .005h-8a3 3 0 0 1 -2.995 -2.824l-.005 -.176v-14a3 3 0 0 1 2.824 -2.995l.176 -.005h8zm-4 14a1 1 0 0 0 -.993 .883l-.007 .117l.007 .127a1 1 0 0 0 1.986 0l.007 -.117l-.007 -.127a1 1 0 0 0 -.993 -.883zm1 -12h-2l-.117 .007a1 1 0 0 0 0 1.986l.117 .007h2l.117 -.007a1 1 0 0 0 0 -1.986l-.117 -.007z" />
  </g>
  <text x="220" y="192" font-family="Microsoft YaHei, PingFang SC, Arial, sans-serif" font-size="16" font-weight="bold" fill="#1F2937">uni-app + Vue 3</text>
  <text x="220" y="212" font-family="Microsoft YaHei, PingFang SC, Arial, sans-serif" font-size="12" fill="#6B7280">跨平台编译 · 组件化开发</text>
  <text x="220" y="232" font-family="Microsoft YaHei, PingFang SC, Arial, sans-serif" font-size="12" fill="#6B7280">Pinia状态管理 · 4个Tab页面</text>
  
  
  <g transform="translate(500.0, 170.0) scale(1.5)" fill="#4FC08D">
    <path d="M24,1.61H14.06L12,5.16,9.94,1.61H0L12,22.39ZM12,14.08,5.16,2.23H9.59L12,6.41l2.41-4.18h4.43Z" />
  </g>
  <text x="500" y="220" font-family="Microsoft YaHei, PingFang SC, Arial, sans-serif" font-size="11" fill="#6B7280">Vue 3</text>
  <path fill="#FFFFFF" stroke="#E5E7EB" stroke-width="1" d="M628,155 H892 A8,8 0 0 1 900,163 V242 A8,8 0 0 1 892,250 H628 A8,8 0 0 1 620,242 V163 A8,8 0 0 1 628,155 Z" />
  <text x="640" y="178" font-family="Microsoft YaHei, PingFang SC, Arial, sans-serif" font-size="13" font-weight="bold" fill="#1F2937">技术特性</text>
  <text x="640" y="200" font-family="Microsoft YaHei, PingFang SC, Arial, sans-serif" font-size="12" fill="#4B5563">HTTP/WS 双协议通讯</text>
  <text x="640" y="220" font-family="Microsoft YaHei, PingFang SC, Arial, sans-serif" font-size="12" fill="#4B5563">68个Vue组件 · 15,234行代码</text>
  <text x="640" y="240" font-family="Microsoft YaHei, PingFang SC, Arial, sans-serif" font-size="12" fill="#4B5563">微信小程序 + 管理后台</text>
  
  <path fill="none" stroke="#93C5FD" stroke-dasharray="6,4" stroke-width="1.5" d="M948,155 H1172 A8,8 0 0 1 1180,163 V242 A8,8 0 0 1 1172,250 H948 A8,8 0 0 1 940,242 V163 A8,8 0 0 1 948,155 Z" />
  <text x="1060" y="200" text-anchor="middle" font-family="Microsoft YaHei, PingFang SC, Arial, sans-serif" font-size="11" fill="#6B7280">待插入: 小程序截图</text>
  <text x="1060" y="218" text-anchor="middle" font-family="Microsoft YaHei, PingFang SC, Arial, sans-serif" font-size="11" fill="#6B7280">miniapp_screenshots.png</text>

  
  <line x1="640" y1="278" x2="640" y2="310" stroke="#6B7280" stroke-width="2" marker-end="url(#arrowDown)" />
  <defs>
    <marker id="arrowDown" markerWidth="10" markerHeight="10" refX="5" refY="5" orient="auto">
      <path d="M0,0 L10,5 L0,10 Z" fill="#6B7280" />
    </marker>
  </defs>
  <path fill="#FFFFFF" stroke="#E5E7EB" stroke-width="1" d="M602,282 H678 A12,12 0 0 1 690,294 V294 A12,12 0 0 1 678,306 H602 A12,12 0 0 1 590,294 V294 A12,12 0 0 1 602,282 Z" />
  <text x="640" y="299" text-anchor="middle" font-family="Consolas, Courier New, monospace" font-size="12" fill="#3B82F6">REST / WS</text>

  
  <path fill="#10B981" d="M88,318 H112 A8,8 0 0 1 120,326 V470 A8,8 0 0 1 112,478 H88 A8,8 0 0 1 80,470 V326 A8,8 0 0 1 88,318 Z" />
  <text x="100" y="406" text-anchor="middle" font-family="Microsoft YaHei, PingFang SC, Arial, sans-serif" font-size="16" font-weight="bold" fill="#FFFFFF">02</text>
  <path fill="#ECFDF5" stroke="#6EE7B7" stroke-width="1.5" stroke-dasharray="6,4" d="M148,318 H1188 A12,12 0 0 1 1200,330 V466 A12,12 0 0 1 1188,478 H148 A12,12 0 0 1 136,466 V330 A12,12 0 0 1 148,318 Z" />
  <text x="668" y="346" text-anchor="middle" font-family="Microsoft YaHei, PingFang SC, Arial, sans-serif" font-size="14" font-weight="bold" fill="#059669">后端服务 · 业务逻辑层</text>
  
  <path fill="#FFFFFF" stroke="#E5E7EB" stroke-width="1" d="M164,365 H448 A8,8 0 0 1 456,373 V452 A8,8 0 0 1 448,460 H164 A8,8 0 0 1 156,452 V373 A8,8 0 0 1 164,365 Z" />
  <use data-icon="tabler-filled/server" x="176" y="382" width="32" height="32" fill="#10B981" />
  <text x="220" y="402" font-family="Microsoft YaHei, PingFang SC, Arial, sans-serif" font-size="16" font-weight="bold" fill="#1F2937">Spring Boot 3.3.7</text>
  <text x="220" y="422" font-family="Microsoft YaHei, PingFang SC, Arial, sans-serif" font-size="12" fill="#6B7280">MyBatis-Plus 3.5.7</text>
  <text x="220" y="442" font-family="Microsoft YaHei, PingFang SC, Arial, sans-serif" font-size="12" fill="#6B7280">Java 17 · Maven构建</text>
  
  
  <g transform="translate(500.0, 378.0) scale(1.5)" fill="#6DB33F">
    <path d="m23.693 10.7058-4.73-8.1844c-.4094-.7106-1.4166-1.2942-2.2402-1.2942H7.2725c-.819 0-1.8308.5836-2.2402 1.2942L.307 10.7058c-.4095.7106-.4095 1.873 0 2.5837l4.7252 8.189c.4094.7107 1.4166 1.2943 2.2402 1.2943h9.455c.819 0 1.826-.5836 2.2402-1.2942l4.7252-8.189c.4095-.7107.4095-1.8732 0-2.5838zM10.9763 5.7547c0-.5365.4377-.9742.9742-.9742s.9742.4377.9742.9742v5.8217c0 .5366-.4377.9742-.9742.9742s-.9742-.4376-.9742-.9742zm.9742 12.4294c-3.6427 0-6.6077-2.965-6.6077-6.6077.0047-2.0896.993-4.0521 2.6685-5.304a.8657.8657 0 0 1 1.2142.1788.8657.8657 0 0 1-.1788 1.2143c-2.1602 1.6048-2.612 4.6592-1.0072 6.8194 1.6049 2.1603 4.6593 2.612 6.8195 1.0072 1.2378-.9177 1.9673-2.372 1.9673-3.9157a4.8972 4.8972 0 0 0-1.9861-3.925c-.386-.2824-.466-.8284-.1836-1.2143.2824-.386.8283-.466 1.2143-.1835 1.6895 1.2471 2.6826 3.2238 2.6873 5.3228 0 3.6474-2.965 6.6077-6.6077 6.6077z" />
  </g>
  <text x="500" y="428" font-family="Microsoft YaHei, PingFang SC, Arial, sans-serif" font-size="11" fill="#6B7280">Spring</text>
  <path fill="#FFFFFF" stroke="#E5E7EB" stroke-width="1" d="M628,365 H892 A8,8 0 0 1 900,373 V452 A8,8 0 0 1 892,460 H628 A8,8 0 0 1 620,452 V373 A8,8 0 0 1 628,365 Z" />
  <text x="640" y="388" font-family="Microsoft YaHei, PingFang SC, Arial, sans-serif" font-size="13" font-weight="bold" fill="#1F2937">核心能力</text>
  <text x="640" y="410" font-family="Microsoft YaHei, PingFang SC, Arial, sans-serif" font-size="12" fill="#4B5563">22个Controller · 42个API接口</text>
  <text x="640" y="430" font-family="Microsoft YaHei, PingFang SC, Arial, sans-serif" font-size="12" fill="#4B5563">WebSocket IM · 7个定时任务</text>
  <text x="640" y="450" font-family="Microsoft YaHei, PingFang SC, Arial, sans-serif" font-size="12" fill="#4B5563">JWT拦截器 · 全局异常处理</text>
  
  <path fill="none" stroke="#6EE7B7" stroke-dasharray="6,4" stroke-width="1.5" d="M948,365 H1172 A8,8 0 0 1 1180,373 V452 A8,8 0 0 1 1172,460 H948 A8,8 0 0 1 940,452 V373 A8,8 0 0 1 948,365 Z" />
  <text x="1060" y="410" text-anchor="middle" font-family="Microsoft YaHei, PingFang SC, Arial, sans-serif" font-size="11" fill="#6B7280">待插入: 管理后台截图</text>
  <text x="1060" y="428" text-anchor="middle" font-family="Microsoft YaHei, PingFang SC, Arial, sans-serif" font-size="11" fill="#6B7280">admin_dashboard.png</text>

  
  <line x1="640" y1="486" x2="640" y2="518" stroke="#6B7280" stroke-width="2" />
  <path fill="#FFFFFF" stroke="#E5E7EB" stroke-width="1" d="M592,490 H688 A12,12 0 0 1 700,502 V502 A12,12 0 0 1 688,514 H592 A12,12 0 0 1 580,502 V502 A12,12 0 0 1 592,490 Z" />
  <text x="640" y="507" text-anchor="middle" font-family="Consolas, Courier New, monospace" font-size="12" fill="#10B981">JDBC / Lettuce</text>

  
  <path fill="#F59E0B" d="M88,526 H112 A8,8 0 0 1 120,534 V638 A8,8 0 0 1 112,646 H88 A8,8 0 0 1 80,638 V534 A8,8 0 0 1 88,526 Z" />
  <text x="100" y="594" text-anchor="middle" font-family="Microsoft YaHei, PingFang SC, Arial, sans-serif" font-size="16" font-weight="bold" fill="#FFFFFF">03</text>
  <path fill="#FFFBEB" stroke="#FCD34D" stroke-width="1.5" stroke-dasharray="6,4" d="M148,526 H1188 A12,12 0 0 1 1200,538 V634 A12,12 0 0 1 1188,646 H148 A12,12 0 0 1 136,634 V538 A12,12 0 0 1 148,526 Z" />
  <text x="668" y="554" text-anchor="middle" font-family="Microsoft YaHei, PingFang SC, Arial, sans-serif" font-size="14" font-weight="bold" fill="#B45309">数据层 · 持久化与缓存</text>
  
  <path fill="#FFFFFF" stroke="#E5E7EB" stroke-width="1" d="M164,570 H528 A8,8 0 0 1 536,578 V622 A8,8 0 0 1 528,630 H164 A8,8 0 0 1 156,622 V578 A8,8 0 0 1 164,570 Z" />
  
  <g transform="translate(176.0, 582.0) scale(1.3333333333333333)" fill="#4479A1">
    <path d="M16.405 5.501c-.115 0-.193.014-.274.033v.013h.014c.054.104.146.18.214.273.054.107.1.214.154.32l.014-.015c.094-.066.14-.172.14-.333-.04-.047-.046-.094-.08-.14-.04-.067-.126-.1-.18-.153zM5.77 18.695h-.927a50.854 50.854 0 00-.27-4.41h-.008l-1.41 4.41H2.45l-1.4-4.41h-.01a72.892 72.892 0 00-.195 4.41H0c.055-1.966.192-3.81.41-5.53h1.15l1.335 4.064h.008l1.347-4.064h1.095c.242 2.015.384 3.86.428 5.53zm4.017-4.08c-.378 2.045-.876 3.533-1.492 4.46-.482.716-1.01 1.073-1.583 1.073-.153 0-.34-.046-.566-.138v-.494c.11.017.24.026.386.026.268 0 .483-.075.647-.222.197-.18.295-.382.295-.605 0-.155-.077-.47-.23-.944L6.23 14.615h.91l.727 2.36c.164.536.233.91.205 1.123.4-1.064.678-2.227.835-3.483zm12.325 4.08h-2.63v-5.53h.885v4.85h1.745zm-3.32.135l-1.016-.5c.09-.076.177-.158.255-.25.433-.506.648-1.258.648-2.253 0-1.83-.718-2.746-2.155-2.746-.704 0-1.254.232-1.65.697-.43.508-.646 1.256-.646 2.245 0 .972.19 1.686.574 2.14.35.41.877.615 1.583.615.264 0 .506-.033.725-.098l1.325.772.36-.622zM15.5 17.588c-.225-.36-.337-.94-.337-1.736 0-1.393.424-2.09 1.27-2.09.443 0 .77.167.977.5.224.362.336.936.336 1.723 0 1.404-.424 2.108-1.27 2.108-.445 0-.77-.167-.978-.5zm-1.658-.425c0 .47-.172.856-.516 1.156-.344.3-.803.45-1.384.45-.543 0-1.064-.172-1.573-.515l.237-.476c.438.22.833.328 1.19.328.332 0 .593-.073.783-.22a.754.754 0 00.3-.615c0-.33-.23-.61-.648-.845-.388-.213-1.163-.657-1.163-.657-.422-.307-.632-.636-.632-1.177 0-.45.157-.81.47-1.085.315-.278.72-.415 1.22-.415.512 0 .98.136 1.4.41l-.213.476a2.726 2.726 0 00-1.064-.23c-.283 0-.502.068-.654.206a.685.685 0 00-.248.524c0 .328.234.61.666.85.393.215 1.187.67 1.187.67.433.305.648.63.648 1.168zm9.382-5.852c-.535-.014-.95.04-1.297.188-.1.04-.26.04-.274.167.055.053.063.14.11.214.08.134.218.313.346.407.14.11.28.216.427.31.26.16.555.255.81.416.145.094.293.213.44.313.073.05.12.14.214.172v-.02c-.046-.06-.06-.147-.105-.214-.067-.067-.134-.127-.2-.193a3.223 3.223 0 00-.695-.675c-.214-.146-.682-.35-.77-.595l-.013-.014c.146-.013.32-.066.46-.106.227-.06.435-.047.67-.106.106-.027.213-.06.32-.094v-.06c-.12-.12-.21-.283-.334-.395a8.867 8.867 0 00-1.104-.823c-.21-.134-.476-.22-.697-.334-.08-.04-.214-.06-.26-.127-.12-.146-.19-.34-.275-.514a17.69 17.69 0 01-.547-1.163c-.12-.262-.193-.523-.34-.763-.69-1.137-1.437-1.826-2.586-2.5-.247-.14-.543-.2-.856-.274-.167-.008-.334-.02-.5-.027-.11-.047-.216-.174-.31-.235-.38-.24-1.364-.76-1.644-.072-.18.434.267.862.422 1.082.115.153.26.328.34.5.047.116.06.235.107.356.106.294.207.622.347.897.073.14.153.287.247.413.054.073.146.107.167.227-.094.136-.1.334-.154.5-.24.757-.146 1.693.194 2.25.107.166.362.534.703.393.3-.12.234-.5.32-.835.02-.08.007-.133.048-.187v.015c.094.188.188.367.274.555.206.328.566.668.867.895.16.12.287.328.487.402v-.02h-.015c-.043-.058-.1-.086-.154-.133a3.445 3.445 0 01-.35-.4 8.76 8.76 0 01-.747-1.218c-.11-.21-.202-.436-.29-.643-.04-.08-.04-.2-.107-.24-.1.146-.247.273-.32.453-.127.288-.14.642-.188 1.01-.027.007-.014 0-.027.014-.214-.052-.287-.274-.367-.46-.2-.475-.233-1.238-.06-1.785.047-.14.247-.582.167-.716-.042-.127-.174-.2-.247-.303a2.478 2.478 0 01-.24-.427c-.16-.374-.24-.788-.414-1.162-.08-.173-.22-.354-.334-.513-.127-.18-.267-.307-.368-.52-.033-.073-.08-.194-.027-.274.014-.054.042-.075.094-.09.088-.072.335.022.422.062.247.1.455.194.662.334.094.066.195.193.315.226h.14c.214.047.455.014.655.073.355.114.675.28.962.46a5.953 5.953 0 012.085 2.286c.08.154.115.295.188.455.14.33.313.663.455.982.14.315.275.636.476.897.1.14.502.213.682.286.133.06.34.115.46.188.23.14.454.3.67.454.11.076.443.243.463.378z" />
  </g>
  <text x="220" y="600" font-family="Microsoft YaHei, PingFang SC, Arial, sans-serif" font-size="16" font-weight="bold" fill="#1F2937">MySQL 5.7</text>
  <text x="220" y="620" font-family="Microsoft YaHei, PingFang SC, Arial, sans-serif" font-size="12" fill="#6B7280">22张业务表 · 286字段 · 45个索引</text>
  
  <path fill="#FFFFFF" stroke="#E5E7EB" stroke-width="1" d="M588,570 H952 A8,8 0 0 1 960,578 V622 A8,8 0 0 1 952,630 H588 A8,8 0 0 1 580,622 V578 A8,8 0 0 1 588,570 Z" />
  
  <g transform="translate(600.0, 582.0) scale(1.3333333333333333)" fill="#DC382D">
    <path d="M22.71 13.145c-1.66 2.092-3.452 4.483-7.038 4.483-3.203 0-4.397-2.825-4.48-5.12.701 1.484 2.073 2.685 4.214 2.63 4.117-.133 6.94-3.852 6.94-7.239 0-4.05-3.022-6.972-8.268-6.972-3.752 0-8.4 1.428-11.455 3.685C2.59 6.937 3.885 9.958 4.35 9.626c2.648-1.904 4.748-3.13 6.784-3.744C8.12 9.244.886 17.05 0 18.425c.1 1.261 1.66 4.648 2.424 4.648.232 0 .431-.133.664-.365a100.49 100.49 0 0 0 5.54-6.765c.222 3.104 1.748 6.898 6.014 6.898 3.819 0 7.604-2.756 9.33-8.965.2-.764-.73-1.361-1.261-.73zm-4.349-5.013c0 1.959-1.926 2.922-3.685 2.922-.941 0-1.664-.247-2.235-.568 1.051-1.592 2.092-3.225 3.21-4.973 1.972.334 2.71 1.43 2.71 2.619z" />
  </g>
  <text x="644" y="600" font-family="Microsoft YaHei, PingFang SC, Arial, sans-serif" font-size="16" font-weight="bold" fill="#1F2937">Redis 6.0</text>
  <text x="644" y="620" font-family="Microsoft YaHei, PingFang SC, Arial, sans-serif" font-size="12" fill="#6B7280">多级缓存 · 命中率87.3% · 128MB</text>

  
  <text x="80" y="675" font-family="Microsoft YaHei, PingFang SC, Arial, sans-serif" font-size="14" font-weight="bold" fill="#1F2937">技术亮点</text>
  
  <path fill="#EFF6FF" stroke="#93C5FD" stroke-width="1" d="M94,688 H226 A14,14 0 0 1 240,702 V702 A14,14 0 0 1 226,716 H94 A14,14 0 0 1 80,702 V702 A14,14 0 0 1 94,688 Z" />
  
  <g transform="translate(90.0, 692.0) scale(0.8333333333333334)" fill="#3B82F6">
    <path d="M11.998 2l.118 .007l.059 .008l.061 .013l.111 .034a.993 .993 0 0 1 .217 .112l.104 .082l.255 .218a11 11 0 0 0 7.189 2.537l.342 -.01a1 1 0 0 1 1.005 .717a13 13 0 0 1 -9.208 16.25a1 1 0 0 1 -.502 0a13 13 0 0 1 -9.209 -16.25a1 1 0 0 1 1.005 -.717a11 11 0 0 0 7.531 -2.527l.263 -.225l.096 -.075a.993 .993 0 0 1 .217 -.112l.112 -.034a.97 .97 0 0 1 .119 -.021l.115 -.007zm.002 7a2 2 0 0 0 -1.995 1.85l-.005 .15l.005 .15a2 2 0 0 0 .995 1.581v1.769l.007 .117a1 1 0 0 0 1.993 -.117l.001 -1.768a2 2 0 0 0 -1.001 -3.732z" />
  </g>
  <text x="115" y="708" font-family="Microsoft YaHei, PingFang SC, Arial, sans-serif" font-size="12" fill="#1E40AF">JWT认证</text>
  
  <path fill="#EFF6FF" stroke="#93C5FD" stroke-width="1" d="M269,688 H421 A14,14 0 0 1 435,702 V702 A14,14 0 0 1 421,716 H269 A14,14 0 0 1 255,702 V702 A14,14 0 0 1 269,688 Z" />
  
  <g transform="translate(265.0, 692.0) scale(0.8333333333333334)" fill="#3B82F6">
    <path d="M18 3a4 4 0 0 1 4 4v8a4 4 0 0 1 -4 4h-4.724l-4.762 2.857a1 1 0 0 1 -1.508 -.743l-.006 -.114v-2h-1a4 4 0 0 1 -3.995 -3.8l-.005 -.2v-8a4 4 0 0 1 4 -4zm-4 9h-6a1 1 0 0 0 0 2h6a1 1 0 0 0 0 -2m2 -4h-8a1 1 0 1 0 0 2h8a1 1 0 0 0 0 -2" />
  </g>
  <text x="290" y="708" font-family="Microsoft YaHei, PingFang SC, Arial, sans-serif" font-size="12" fill="#1E40AF">WebSocket通讯</text>
  
  <path fill="#ECFDF5" stroke="#6EE7B7" stroke-width="1" d="M464,688 H596 A14,14 0 0 1 610,702 V702 A14,14 0 0 1 596,716 H464 A14,14 0 0 1 450,702 V702 A14,14 0 0 1 464,688 Z" />
  
  <g transform="translate(460.0, 692.0) scale(0.8333333333333334)" fill="#10B981">
    <path d="M13 2l.018 .001l.016 .001l.083 .005l.011 .002h.011l.038 .009l.052 .008l.016 .006l.011 .001l.029 .011l.052 .014l.019 .009l.015 .004l.028 .014l.04 .017l.021 .012l.022 .01l.023 .015l.031 .017l.034 .024l.018 .011l.013 .012l.024 .017l.038 .034l.022 .017l.008 .01l.014 .012l.036 .041l.026 .027l.006 .009c.12 .147 .196 .322 .218 .513l.001 .012l.002 .041l.004 .064v6h5a1 1 0 0 1 .868 1.497l-.06 .091l-8 11c-.568 .783 -1.808 .38 -1.808 -.588v-6h-5a1 1 0 0 1 -.868 -1.497l.06 -.091l8 -11l.01 -.013l.018 -.024l.033 -.038l.018 -.022l.009 -.008l.013 -.014l.04 -.036l.028 -.026l.008 -.006a1 1 0 0 1 .402 -.199l.011 -.001l.027 -.005l.074 -.013l.011 -.001l.041 -.002z" />
  </g>
  <text x="485" y="708" font-family="Microsoft YaHei, PingFang SC, Arial, sans-serif" font-size="12" fill="#065F46">缓存优化</text>
  
  <path fill="#FFFBEB" stroke="#FCD34D" stroke-width="1" d="M639,688 H771 A14,14 0 0 1 785,702 V702 A14,14 0 0 1 771,716 H639 A14,14 0 0 1 625,702 V702 A14,14 0 0 1 639,688 Z" />
  
  <g transform="translate(635.0, 692.0) scale(0.8333333333333334)" fill="#F59E0B">
    <path d="M17 3.34a10 10 0 1 1 -14.995 8.984l-.005 -.324l.005 -.324a10 10 0 0 1 14.995 -8.336zm-5 2.66a1 1 0 0 0 -.993 .883l-.007 .117v5l.009 .131a1 1 0 0 0 .197 .477l.087 .1l3 3l.094 .082a1 1 0 0 0 1.226 0l.094 -.083l.083 -.094a1 1 0 0 0 0 -1.226l-.083 -.094l-2.707 -2.708v-4.585l-.007 -.117a1 1 0 0 0 -.993 -.883z" />
  </g>
  <text x="660" y="708" font-family="Microsoft YaHei, PingFang SC, Arial, sans-serif" font-size="12" fill="#92400E">定时任务</text>
  
  <path fill="#FEF2F2" stroke="#FECACA" stroke-width="1" d="M814,688 H946 A14,14 0 0 1 960,702 V702 A14,14 0 0 1 946,716 H814 A14,14 0 0 1 800,702 V702 A14,14 0 0 1 814,688 Z" />
  
  <g transform="translate(810.0, 692.0) scale(0.8333333333333334)" fill="#EF4444">
    <path d="M12 2a5 5 0 0 1 5 5v3a3 3 0 0 1 3 3v6a3 3 0 0 1 -3 3h-10a3 3 0 0 1 -3 -3v-6a3 3 0 0 1 3 -3v-3a5 5 0 0 1 5 -5m0 12a2 2 0 0 0 -1.995 1.85l-.005 .15a2 2 0 1 0 2 -2m0 -10a3 3 0 0 0 -3 3v3h6v-3a3 3 0 0 0 -3 -3" />
  </g>
  <text x="835" y="708" font-family="Microsoft YaHei, PingFang SC, Arial, sans-serif" font-size="12" fill="#991B1B">分布式锁</text>
  
  <path fill="#F5F3FF" stroke="#C4B5FD" stroke-width="1" d="M989,688 H1121 A14,14 0 0 1 1135,702 V702 A14,14 0 0 1 1121,716 H989 A14,14 0 0 1 975,702 V702 A14,14 0 0 1 989,688 Z" />
  
  <g transform="translate(985.0, 692.0) scale(0.8333333333333334)" fill="#8B5CF6">
    <path d="M14.52 2c1.029 0 2.015 .409 2.742 1.136l3.602 3.602a3.877 3.877 0 0 1 0 5.483l-2.643 2.643a3.88 3.88 0 0 1 -4.941 .452l-.105 -.078l-5.882 5.883a3 3 0 0 1 -1.68 .843l-.22 .027l-.221 .009h-1.172c-1.014 0 -1.867 -.759 -1.991 -1.823l-.009 -.177v-1.172c0 -.704 .248 -1.386 .73 -1.96l.149 -.161l.414 -.414a1 1 0 0 1 .707 -.293h1v-1a1 1 0 0 1 .883 -.993l.117 -.007h1v-1a1 1 0 0 1 .206 -.608l.087 -.1l1.468 -1.469l-.076 -.103a3.9 3.9 0 0 1 -.678 -1.963l-.007 -.236c0 -1.029 .409 -2.015 1.136 -2.742l2.643 -2.643a3.88 3.88 0 0 1 2.741 -1.136m.495 5h-.02a2 2 0 1 0 0 4h.02a2 2 0 1 0 0 -4" />
  </g>
  <text x="1010" y="708" font-family="Microsoft YaHei, PingFang SC, Arial, sans-serif" font-size="12" fill="#5B21B6">密码加密</text>
</svg>