<svg xmlns="http://www.w3.org/2000/svg" viewBox="0 0 1280 720">
  <rect width="1280" height="720" fill="#F9FAFB" />
  
  <path fill="#3B82F6" d="M64,32 H64 A4,4 0 0 1 68,36 V64 A4,4 0 0 1 64,68 H64 A4,4 0 0 1 60,64 V36 A4,4 0 0 1 64,32 Z" />
  <text x="80" y="60" font-family="Microsoft YaHei, PingFang SC, Arial, sans-serif" font-size="32" font-weight="bold" fill="#1F2937">开发完成度与核心成果</text>
  <text x="80" y="84" font-family="Microsoft YaHei, PingFang SC, Arial, sans-serif" font-size="14" fill="#6B7280">DEVELOPMENT PROGRESS — 22表 · 286字段 · 42API · 43,613行代码</text>

  
  <path fill="#FFFFFF" stroke="#E5E7EB" stroke-width="1.5" d="M72,110 H1208 A12,12 0 0 1 1220,122 V278 A12,12 0 0 1 1208,290 H72 A12,12 0 0 1 60,278 V122 A12,12 0 0 1 72,110 Z" />
  <text x="340" y="140" text-anchor="middle" font-family="Microsoft YaHei, PingFang SC, Arial, sans-serif" font-size="16" font-weight="bold" fill="#1F2937">三端开发完成度</text>

  
  <circle cx="200" cy="220" r="50" fill="none" stroke="#E5E7EB" stroke-width="8" />
  <circle cx="200" cy="220" r="50" fill="none" stroke="#3B82F6" stroke-width="8" stroke-dasharray="308 314" stroke-linecap="round" transform="rotate(-90 200 220)" />
  <text x="200" y="218" text-anchor="middle" font-family="Microsoft YaHei, PingFang SC, Arial, sans-serif" font-size="22" font-weight="bold" fill="#3B82F6">98%</text>
  <text x="200" y="240" text-anchor="middle" font-family="Microsoft YaHei, PingFang SC, Arial, sans-serif" font-size="12" fill="#6B7280">后端服务</text>

  
  <circle cx="640" cy="220" r="50" fill="none" stroke="#E5E7EB" stroke-width="8" />
  <circle cx="640" cy="220" r="50" fill="none" stroke="#10B981" stroke-width="8" stroke-dasharray="311 314" stroke-linecap="round" transform="rotate(-90 640 220)" />
  <text x="640" y="218" text-anchor="middle" font-family="Microsoft YaHei, PingFang SC, Arial, sans-serif" font-size="22" font-weight="bold" fill="#10B981">99%</text>
  <text x="640" y="240" text-anchor="middle" font-family="Microsoft YaHei, PingFang SC, Arial, sans-serif" font-size="12" fill="#6B7280">管理后台</text>

  
  <circle cx="1080" cy="220" r="50" fill="none" stroke="#E5E7EB" stroke-width="8" />
  <circle cx="1080" cy="220" r="50" fill="none" stroke="#8B5CF6" stroke-width="8" stroke-dasharray="301 314" stroke-linecap="round" transform="rotate(-90 1080 220)" />
  <text x="1080" y="218" text-anchor="middle" font-family="Microsoft YaHei, PingFang SC, Arial, sans-serif" font-size="22" font-weight="bold" fill="#8B5CF6">96%</text>
  <text x="1080" y="240" text-anchor="middle" font-family="Microsoft YaHei, PingFang SC, Arial, sans-serif" font-size="12" fill="#6B7280">小程序端</text>

  
  <path fill="#FFFFFF" stroke="#E5E7EB" stroke-width="1.5" d="M72,310 H608 A12,12 0 0 1 620,322 V478 A12,12 0 0 1 608,490 H72 A12,12 0 0 1 60,478 V322 A12,12 0 0 1 72,310 Z" />
  <text x="80" y="338" font-family="Microsoft YaHei, PingFang SC, Arial, sans-serif" font-size="16" font-weight="bold" fill="#1F2937">版本里程碑</text>

  
  <line x1="100" y1="365" x2="580" y2="365" stroke="#E5E7EB" stroke-width="2" />

  
  <circle cx="120" cy="365" r="8" fill="#3B82F6" />
  <text x="120" y="369" text-anchor="middle" font-family="Microsoft YaHei, PingFang SC, Arial, sans-serif" font-size="8" font-weight="bold" fill="#FFFFFF">1</text>
  <text x="120" y="395" text-anchor="middle" font-family="Microsoft YaHei, PingFang SC, Arial, sans-serif" font-size="11" font-weight="bold" fill="#1F2937">V1.0 基础</text>
  <text x="120" y="412" text-anchor="middle" font-family="Microsoft YaHei, PingFang SC, Arial, sans-serif" font-size="10" fill="#6B7280">2026-02</text>
  <text x="120" y="426" text-anchor="middle" font-family="Microsoft YaHei, PingFang SC, Arial, sans-serif" font-size="9" fill="#9CA3AF">用户/商品/搜索</text>

  
  <circle cx="260" cy="365" r="8" fill="#10B981" />
  <text x="260" y="369" text-anchor="middle" font-family="Microsoft YaHei, PingFang SC, Arial, sans-serif" font-size="8" font-weight="bold" fill="#FFFFFF">2</text>
  <text x="260" y="395" text-anchor="middle" font-family="Microsoft YaHei, PingFang SC, Arial, sans-serif" font-size="11" font-weight="bold" fill="#1F2937">V1.1 IM</text>
  <text x="260" y="412" text-anchor="middle" font-family="Microsoft YaHei, PingFang SC, Arial, sans-serif" font-size="10" fill="#6B7280">2026-03</text>
  <text x="260" y="426" text-anchor="middle" font-family="Microsoft YaHei, PingFang SC, Arial, sans-serif" font-size="9" fill="#9CA3AF">WebSocket通讯</text>

  
  <circle cx="400" cy="365" r="8" fill="#F59E0B" />
  <text x="400" y="369" text-anchor="middle" font-family="Microsoft YaHei, PingFang SC, Arial, sans-serif" font-size="8" font-weight="bold" fill="#FFFFFF">3</text>
  <text x="400" y="395" text-anchor="middle" font-family="Microsoft YaHei, PingFang SC, Arial, sans-serif" font-size="11" font-weight="bold" fill="#1F2937">V1.6 认证</text>
  <text x="400" y="412" text-anchor="middle" font-family="Microsoft YaHei, PingFang SC, Arial, sans-serif" font-size="10" fill="#6B7280">2026-04</text>
  <text x="400" y="426" text-anchor="middle" font-family="Microsoft YaHei, PingFang SC, Arial, sans-serif" font-size="9" fill="#9CA3AF">校园认证体系</text>

  
  <circle cx="540" cy="365" r="10" fill="#8B5CF6" />
  <text x="540" y="369" text-anchor="middle" font-family="Microsoft YaHei, PingFang SC, Arial, sans-serif" font-size="8" font-weight="bold" fill="#FFFFFF">4</text>
  <text x="540" y="395" text-anchor="middle" font-family="Microsoft YaHei, PingFang SC, Arial, sans-serif" font-size="11" font-weight="bold" fill="#6D28D9">V1.9 最新</text>
  <text x="540" y="412" text-anchor="middle" font-family="Microsoft YaHei, PingFang SC, Arial, sans-serif" font-size="10" fill="#6B7280">2026-05</text>
  <text x="540" y="426" text-anchor="middle" font-family="Microsoft YaHei, PingFang SC, Arial, sans-serif" font-size="9" fill="#9CA3AF">双向确认+评价</text>

  
  <path fill="#FFFFFF" stroke="#E5E7EB" stroke-width="1.5" d="M652,310 H1208 A12,12 0 0 1 1220,322 V478 A12,12 0 0 1 1208,490 H652 A12,12 0 0 1 640,478 V322 A12,12 0 0 1 652,310 Z" />
  <text x="660" y="338" font-family="Microsoft YaHei, PingFang SC, Arial, sans-serif" font-size="16" font-weight="bold" fill="#1F2937">6大核心成果</text>

  
  <path fill="#EFF6FF" d="M668,352 H827 A8,8 0 0 1 835,360 V399 A8,8 0 0 1 827,407 H668 A8,8 0 0 1 660,399 V360 A8,8 0 0 1 668,352 Z" />
  <text x="748" y="375" text-anchor="middle" font-family="Microsoft YaHei, PingFang SC, Arial, sans-serif" font-size="14" font-weight="bold" fill="#2563EB">22张数据表</text>
  <text x="748" y="398" text-anchor="middle" font-family="Microsoft YaHei, PingFang SC, Arial, sans-serif" font-size="11" fill="#6B7280">完整业务数据模型</text>

  <path fill="#ECFDF5" d="M856,352 H1015 A8,8 0 0 1 1023,360 V399 A8,8 0 0 1 1015,407 H856 A8,8 0 0 1 848,399 V360 A8,8 0 0 1 856,352 Z" />
  <text x="936" y="375" text-anchor="middle" font-family="Microsoft YaHei, PingFang SC, Arial, sans-serif" font-size="14" font-weight="bold" fill="#065F46">42个API</text>
  <text x="936" y="398" text-anchor="middle" font-family="Microsoft YaHei, PingFang SC, Arial, sans-serif" font-size="11" fill="#6B7280">RESTful统一接口</text>

  <path fill="#F5F3FF" d="M1044,352 H1203 A8,8 0 0 1 1211,360 V399 A8,8 0 0 1 1203,407 H1044 A8,8 0 0 1 1036,399 V360 A8,8 0 0 1 1044,352 Z" />
  <text x="1124" y="375" text-anchor="middle" font-family="Microsoft YaHei, PingFang SC, Arial, sans-serif" font-size="14" font-weight="bold" fill="#6D28D9">7个定时任务</text>
  <text x="1124" y="398" text-anchor="middle" font-family="Microsoft YaHei, PingFang SC, Arial, sans-serif" font-size="11" fill="#6B7280">全自动化运维</text>

  
  <path fill="#FFFBEB" d="M668,418 H827 A8,8 0 0 1 835,426 V465 A8,8 0 0 1 827,473 H668 A8,8 0 0 1 660,465 V426 A8,8 0 0 1 668,418 Z" />
  <text x="748" y="441" text-anchor="middle" font-family="Microsoft YaHei, PingFang SC, Arial, sans-serif" font-size="14" font-weight="bold" fill="#92400E">43,613行代码</text>
  <text x="748" y="464" text-anchor="middle" font-family="Microsoft YaHei, PingFang SC, Arial, sans-serif" font-size="11" fill="#6B7280">Java + Vue + uni-app</text>

  <path fill="#FEF2F2" d="M856,418 H1015 A8,8 0 0 1 1023,426 V465 A8,8 0 0 1 1015,473 H856 A8,8 0 0 1 848,465 V426 A8,8 0 0 1 856,418 Z" />
  <text x="936" y="441" text-anchor="middle" font-family="Microsoft YaHei, PingFang SC, Arial, sans-serif" font-size="14" font-weight="bold" fill="#DC2626">80%测试覆盖</text>
  <text x="936" y="464" text-anchor="middle" font-family="Microsoft YaHei, PingFang SC, Arial, sans-serif" font-size="11" fill="#6B7280">123用例100%通过</text>

  <path fill="#F0FDFA" d="M1044,418 H1203 A8,8 0 0 1 1211,426 V465 A8,8 0 0 1 1203,473 H1044 A8,8 0 0 1 1036,465 V426 A8,8 0 0 1 1044,418 Z" />
  <text x="1124" y="441" text-anchor="middle" font-family="Microsoft YaHei, PingFang SC, Arial, sans-serif" font-size="14" font-weight="bold" fill="#0F766E">98%核心完成</text>
  <text x="1124" y="464" text-anchor="middle" font-family="Microsoft YaHei, PingFang SC, Arial, sans-serif" font-size="11" fill="#6B7280">答辩就绪</text>

  
  <path fill="#FFFFFF" stroke="#E5E7EB" stroke-width="1.5" stroke-dasharray="8,4" d="M72,510 H1208 A12,12 0 0 1 1220,522 V678 A12,12 0 0 1 1208,690 H72 A12,12 0 0 1 60,678 V522 A12,12 0 0 1 72,510 Z" />
  <text x="640" y="590" text-anchor="middle" font-family="Microsoft YaHei, PingFang SC, Arial, sans-serif" font-size="16" fill="#9CA3AF">待插入图片: miniapp_screenshots.png</text>
  <text x="640" y="620" text-anchor="middle" font-family="Microsoft YaHei, PingFang SC, Arial, sans-serif" font-size="12" fill="#9CA3AF">建议: 3-4张小程序核心页面截图拼图（首页、商品详情、订单页、个人中心）</text>
  <text x="640" y="645" text-anchor="middle" font-family="Microsoft YaHei, PingFang SC, Arial, sans-serif" font-size="11" fill="#B0B8C4">建议尺寸: 700x350px · 比例 2:1</text>
</svg>